# xmcd
#
# Track frame offsets: 
#        150
#        12643
#        23674
#        38537
#        49200
#        61150
#        78844
#        89320
#        100155
#        109849
#        124449
#        139458
#
# Disc length: 2058 seconds
#
# Revision: 0
# Processed by: cddbd v1.5.2PL0 Copyright (c) Steve Scherf et al.
# Submitted via: ExactAudioCopy v0.99pb5
#
DISCID=9b08080c
DTITLE=Steve Martin and Edie Brickell - So Familiar
DYEAR=2015
DGENRE=Bluegrass
TTITLE0=So Familiar
TTITLE1=Always Will
TTITLE2=Way Back In The Day
TTITLE3=Won't Go Back
TTITLE4=I'm By Your Side
TTITLE5=I Had a Vision
TTITLE6=I Have You
TTITLE7=Another Round
TTITLE8=Mine All Mine
TTITLE9=Strong is the Heart
TTITLE10=My Baby
TTITLE11=Heartbreaker
EXTD=
EXTT0=
EXTT1=
EXTT2=
EXTT3=
EXTT4=
EXTT5=
EXTT6=
EXTT7=
EXTT8=
EXTT9=
EXTT10=
EXTT11=
PLAYORDER=
